TITLE ""
FILE "Step2_Track23.mp3" MP3
  TRACK 01 AUDIO
    TITLE "Step2_Track23_01"
    INDEX 01 00:00:00
  TRACK 02 AUDIO
    TITLE "Step2_Track23_02"
    INDEX 01 00:00:24
  TRACK 03 AUDIO
    TITLE "Step2_Track23_03"
    INDEX 01 00:02:05
  TRACK 04 AUDIO
    TITLE "Step2_Track23_04"
    INDEX 01 00:02:66
  TRACK 05 AUDIO
    TITLE "Step2_Track23_05"
    INDEX 01 00:03:62
  TRACK 06 AUDIO
    TITLE "Step2_Track23_06"
    INDEX 01 00:04:04
  TRACK 07 AUDIO
    TITLE "Step2_Track23_07"
    INDEX 01 00:06:19
  TRACK 08 AUDIO
    TITLE "Step2_Track23_08"
    INDEX 01 00:06:32
  TRACK 09 AUDIO
    TITLE "Step2_Track23_09"
    INDEX 01 00:07:32
  TRACK 10 AUDIO
    TITLE "Step2_Track23_10"
    INDEX 01 00:07:36
  TRACK 11 AUDIO
    TITLE "Step2_Track23_11"
    INDEX 01 00:09:72
  TRACK 12 AUDIO
    TITLE "Step2_Track23_12"
    INDEX 01 00:10:13
  TRACK 13 AUDIO
    TITLE "Step2_Track23_13"
    INDEX 01 00:11:12
  TRACK 14 AUDIO
    TITLE "Step2_Track23_14"
    INDEX 01 00:11:28
  TRACK 15 AUDIO
    TITLE "Step2_Track23_15"
    INDEX 01 00:14:05
  TRACK 16 AUDIO
    TITLE "Step2_Track23_16"
    INDEX 01 00:14:10
  TRACK 17 AUDIO
    TITLE "Step2_Track23_17"
    INDEX 01 00:15:16
  TRACK 18 AUDIO
    TITLE "Step2_Track23_18"
    INDEX 01 00:15:37
  TRACK 19 AUDIO
    TITLE "Step2_Track23_19"
    INDEX 01 00:18:20
  TRACK 20 AUDIO
    TITLE "Step2_Track23_20"
    INDEX 01 00:18:32
  TRACK 21 AUDIO
    TITLE "Step2_Track23_21"
    INDEX 01 00:19:27
  TRACK 22 AUDIO
    TITLE "Step2_Track23_22"
    INDEX 01 00:19:49
  TRACK 23 AUDIO
    TITLE "Step2_Track23_23"
    INDEX 01 00:22:31
  TRACK 24 AUDIO
    TITLE "Step2_Track23_24"
    INDEX 01 00:22:33
  TRACK 25 AUDIO
    TITLE "Step2_Track23_25"
    INDEX 01 00:23:33
  TRACK 26 AUDIO
    TITLE "Step2_Track23_26"
    INDEX 01 00:23:52
  TRACK 27 AUDIO
    TITLE "Step2_Track23_27"
    INDEX 01 00:26:19
  TRACK 28 AUDIO
    TITLE "Step2_Track23_28"
    INDEX 01 00:26:25
  TRACK 29 AUDIO
    TITLE "Step2_Track23_29"
    INDEX 01 00:27:27
  TRACK 30 AUDIO
    TITLE "Step2_Track23_30"
    INDEX 01 00:27:42
  TRACK 31 AUDIO
    TITLE "Step2_Track23_31"
    INDEX 01 00:30:17
  TRACK 32 AUDIO
    TITLE "Step2_Track23_32"
    INDEX 01 00:30:41
  TRACK 33 AUDIO
    TITLE "Step2_Track23_33"
    INDEX 01 00:31:19
  TRACK 34 AUDIO
    TITLE "Step2_Track23_34"
    INDEX 01 00:31:54
  TRACK 35 AUDIO
    TITLE "Step2_Track23_35"
    INDEX 01 00:34:43
  TRACK 36 AUDIO
    TITLE "Step2_Track23_36"
    INDEX 01 00:34:58
  TRACK 37 AUDIO
    TITLE "Step2_Track23_37"
    INDEX 01 00:35:60
  TRACK 38 AUDIO
    TITLE "Step2_Track23_38"
    INDEX 01 00:35:69
  TRACK 39 AUDIO
    TITLE "Step2_Track23_39"
    INDEX 01 00:38:11
  TRACK 40 AUDIO
    TITLE "Step2_Track23_40"
    INDEX 01 00:38:56
  TRACK 41 AUDIO
    TITLE "Step2_Track23_41"
    INDEX 01 00:39:48
  TRACK 42 AUDIO
    TITLE "Step2_Track23_42"
    INDEX 01 00:39:61
  TRACK 43 AUDIO
    TITLE "Step2_Track23_43"
    INDEX 01 00:42:19
